<mxfile host="drawio-plugin" modified="2025-03-04T14:54:53.445Z" agent="Mozilla/5.0 (X11; Linux x86_64) AppleWebKit/537.36 (KHTML, like Gecko) Chrome/122.0.0.0 Safari/537.36" version="22.1.22" etag="r9SBKyH3b1btOn63vlVN" type="embed">
  <diagram id="0" name="Page-1">
    <mxGraphModel dx="8790" dy="3600" grid="1" gridSize="10" guides="1" tooltips="1" connect="1" arrows="1" fold="1" page="1" pageScale="1" pageWidth="4000" pageHeight="4000" math="0" shadow="0">
      <root>
        <mxCell id="0" />
        <mxCell id="1" parent="0" />
        <mxCell id="5302619990913256064" value="Webex EQ CODEC, CS-CODEC-EQ-NR++" style="rounded=0;whiteSpace=wrap;html=1;" parent="1" connectable="" vertex="1">
          <mxGeometry x="1900" y="3410" width="200" height="1200" as="geometry" />
        </mxCell>
        <mxCell id="8386861187538571969" value="Webex EQ CODEC, CS-CODEC-EQ-NR++" style="rounded=0;whiteSpace=wrap;html=1;" parent="1" connectable="" vertex="1">
          <mxGeometry x="2600" y="3000" width="160" height="90" as="geometry" />
        </mxCell>
        <mxCell id="5050574564658464271" value="Webex EQ CODEC, CS-CODEC-EQ-NR++" style="rounded=0;whiteSpace=wrap;html=1;" parent="1" connectable="" vertex="1">
          <mxGeometry x="2600" y="3140" width="160" height="90" as="geometry" />
        </mxCell>
        <mxCell id="2424248054461032593" value="DA HD 4K Plus, 60-1607-01" style="rounded=0;whiteSpace=wrap;html=1;" parent="1" connectable="" vertex="1">
          <mxGeometry x="2600" y="3280" width="160" height="90" as="geometry" />
        </mxCell>
        <mxCell id="4927544343332553800" value="232-ATSC 4K HDTV, 5114-001" style="rounded=0;whiteSpace=wrap;html=1;" parent="1" connectable="" vertex="1">
          <mxGeometry x="2600" y="3420" width="160" height="90" as="geometry" />
        </mxCell>
        <mxCell id="4212745877614737673" value="DTP 4K 230 Tx, 60-1271-12" style="rounded=0;whiteSpace=wrap;html=1;" parent="1" connectable="" vertex="1">
          <mxGeometry x="2600" y="3840" width="160" height="90" as="geometry" />
        </mxCell>
        <mxCell id="2749180014467599011" value="DTP 4K 230 Tx, 60-1271-12" style="rounded=0;whiteSpace=wrap;html=1;" parent="1" connectable="" vertex="1">
          <mxGeometry x="2600" y="3980" width="160" height="90" as="geometry" />
        </mxCell>
        <mxCell id="3034832638985970917" value="DTP 4K 230 Tx, 60-1271-12" style="rounded=0;whiteSpace=wrap;html=1;" parent="1" connectable="" vertex="1">
          <mxGeometry x="2600" y="4120" width="160" height="90" as="geometry" />
        </mxCell>
        <mxCell id="7361042492316522169" value="DTP 4K 230 Tx, 60-1271-12" style="rounded=0;whiteSpace=wrap;html=1;" parent="1" connectable="" vertex="1">
          <mxGeometry x="2600" y="4260" width="160" height="90" as="geometry" />
        </mxCell>
        <mxCell id="9456848160072013365" value="TEST" style="rounded=0;whiteSpace=wrap;html=1;" parent="1" connectable="" vertex="1">
          <mxGeometry x="2200" y="3000" width="160" height="90" as="geometry" />
        </mxCell>
        <mxCell id="5391769611129538362" value="OneLink Bridge" style="rounded=0;whiteSpace=wrap;html=1;" parent="1" connectable="" vertex="1">
          <mxGeometry x="2200" y="3140" width="160" height="90" as="geometry" />
        </mxCell>
        <mxCell id="8339267656436583309" value="BYOD" style="rounded=0;whiteSpace=wrap;html=1;" parent="1" connectable="" vertex="1">
          <mxGeometry x="2200" y="3840" width="160" height="90" as="geometry" />
        </mxCell>
        <mxCell id="8384064904357864365" value="BYOD" style="rounded=0;whiteSpace=wrap;html=1;" parent="1" connectable="" vertex="1">
          <mxGeometry x="2200" y="3980" width="160" height="90" as="geometry" />
        </mxCell>
        <mxCell id="7537791020941974893" value="BYOD" style="rounded=0;whiteSpace=wrap;html=1;" parent="1" connectable="" vertex="1">
          <mxGeometry x="2200" y="4120" width="160" height="90" as="geometry" />
        </mxCell>
        <mxCell id="8761814941858597068" value="BYOD" style="rounded=0;whiteSpace=wrap;html=1;" parent="1" connectable="" vertex="1">
          <mxGeometry x="2200" y="4260" width="160" height="90" as="geometry" />
        </mxCell>
        <mxCell id="7354264429091785611" value="Vaddio Roboshot 12E, 999-99600-100" style="rounded=0;whiteSpace=wrap;html=1;" parent="1" connectable="" vertex="1">
          <mxGeometry x="1800" y="3000" width="160" height="90" as="geometry" />
        </mxCell>
      </root>
    </mxGraphModel>
  </diagram>
</mxfile>
